<svg xmlns="http://www.w3.org/2000/svg" width="822.67" height="264" viewBox="0 0 822.67 264">
  <g id="Group_3" data-name="Group 3" transform="translate(-325.33 -281)">
    <g id="_2687408_9229_Converted_" data-name="2687408_9229 [Converted]" transform="translate(-88.62 201.45)">
      <g id="Group_1" data-name="Group 1">
        <path id="Path_1" data-name="Path 1" d="M461.45,114.85c-10.64,4.17-22.75,13.65-22.75,35.25v22.96c-11.06,1.46-24.75,5.08-24.75,14.05v47.44c0,8.97,13.69,12.59,24.75,14.05v22.96c0,12.1,3.8,20.4,9.02,26.09l13.74-10.95V114.85Z" fill="#f0f1f1"/>
        <path id="Path_2" data-name="Path 2" d="M461.45,286.71l-13.74,10.95c11.38,12.42,29.5,12.42,29.5,12.42V111.58a48.073,48.073,0,0,0-15.76,3.26V286.7Z" fill="#cfd1d2"/>
        <path id="Path_3" data-name="Path 3" d="M527.34,81.79c-15.14,2.83-32.29,9.24-32.29,23.74v93.58s0,91.05.01,117.03c0,9.41,7.22,15.41,16.43,19.24l15.84-12.63V81.79Z" fill="#f0f1f1"/>
        <path id="Path_4" data-name="Path 4" d="M735.8,85.24c-15.87-5.69-35.85-5.69-35.85-5.69V185.06H550.1v38.75H724.97l-10.31,12.8H699.93v88.42L735.8,303.2Z" fill="#f0f1f1"/>
        <path id="Path_5" data-name="Path 5" d="M735.8,85.24V303.21l-35.88,21.83v17.09s55,0,55.01-25.98.01-117.03.01-117.03V105.54c0-10.32-8.68-16.54-19.14-20.29Z" fill="#cfd1d2"/>
        <path id="Path_6" data-name="Path 6" d="M724.98,223.81H550.11V185.06h-.04V79.55a138.914,138.914,0,0,0-22.72,2.24V322.75l-15.84,12.63c16.21,6.74,38.58,6.74,38.58,6.74V236.61H714.67l10.31-12.8Z" fill="#cfd1d2"/>
        <path id="Path_7" data-name="Path 7" d="M798.19,120.24c-11.16-8.66-25.4-8.66-25.4-8.66V296.57l25.4-13.99Z" fill="#f0f1f1"/>
        <path id="Path_8" data-name="Path 8" d="M811.3,173.06V150.1c0-15.1-5.92-24.28-13.12-29.86V282.59l-25.4,13.99v13.51s38.52,0,38.52-38.52V248.61c11.06-1.46,24.75-5.08,24.75-14.05V187.12c0-8.97-13.69-12.59-24.75-14.05Z" fill="#cfd1d2"/>
      </g>
    </g>
    <g id="Group_2" data-name="Group 2" transform="translate(-48 -42)">
      <text id="APP" transform="translate(849 548)" fill="#cfd1d2" font-size="156" font-family="Montserrat-Bold, Montserrat" font-weight="700"><tspan x="0" y="0">APP</tspan></text>
      <text id="WORKOUT" transform="translate(848 397)" fill="#707070" font-size="61" font-family="Montserrat-Bold, Montserrat" font-weight="700"><tspan x="0" y="0">WORKOUT</tspan></text>
    </g>
  </g>
</svg>
